<svg width="512" height="512" version="1.1" xmlns="http://www.w3.org/2000/svg" desc="Created with imagetracer.js version 1.2.6" ><path fill="rgb(220,74,174)" stroke="rgb(220,74,174)" stroke-width="1" opacity="0.996078431372549" d="M 0 0 L 56.5 0 L 58.5 2 L 60 1.5 L 61.5 5 L 63 4.5 L 63 6.5 Q 62.3 8.8 64.5 8 L 64 9.5 Q 63.2 12.5 67 11 L 67 13.5 L 72.5 20 Q 74.8 19.3 74 21.5 L 73.5 23 Q 75.8 22.3 75 24.5 L 81.5 34 L 84 35.5 L 84 38.5 L 88 44 Q 90.7 42.9 90 45.5 L 95.5 54 L 98 55.5 L 99.5 59 L 101 58.5 L 100 59.5 Q 105.4 62.3 103.5 65 Q 106.1 64.2 105 67.5 L 107 67.5 L 114 78.5 L 113.5 80 L 117 82.5 L 118 86 Q 120.7 84.9 120 87.5 L 123.5 93 Q 125.8 92.3 125 94.5 L 129.5 101 L 131 100.5 L 131 102.5 L 137 110.5 L 137 113 Q 139.7 111.9 139 114.5 Q 144.4 117.3 142.5 120 Q 144.8 119.3 144 121.5 L 146 125 Q 149 123.8 148 127.5 L 153 132.5 L 153 135 L 156 136.5 L 158 141.5 L 180 170.5 L 180 173 Q 182.7 171.9 182 174.5 L 184.5 178 Q 186.8 177.3 186 179.5 L 199 197.5 L 133.5 198 L 130 200.5 L 131 207.5 L 157 251.5 Q 155.3 254.8 153.5 251 L 151.5 252 L 151.5 250 Q 149.3 249.3 150 251.5 L 149 251.5 Q 149.9 248.5 145.5 250 L 139.5 247 L 137.5 247 L 124 244.5 L 124.5 243 L 120 242 L 119.5 244 L 119 242 L 114 243 L 115 240.5 L 113 240 Q 114.3 243 110.5 242 L 107 240 Q 108.1 237.3 105.5 238 L 102.5 240 L 103 238.5 Q 103.8 235.9 100.5 237 L 100.5 239 L 96.5 236 Q 90.4 236.6 87.5 234 L 85 235 L 84.5 232 L 83.5 235 L 82.5 232 L 79.5 234 L 78.5 231 L 76.5 232 L 74.5 231 L 75.5 234 Q 71.8 232 73.5 230 L 71.5 229 L 68 231 Q 69.1 228.3 66.5 229 L 61 228 L 60.5 226 L 58.5 228 Q 57 224.5 55.5 227 L 46.5 223 L 44.5 226 L 40.5 224 L 39 223.5 L 39 221.5 L 38.5 220 L 38 223 L 33 222 Q 34.5 218.2 31.5 219 L 30 218.5 L 29.5 220 L 25.5 217 L 22.5 219 L 23 217.5 Q 23.9 214.5 19.5 216 L 18 215.5 L 16.5 218 L 16.5 216 L 9.5 213 L 9 215 L 6.5 214 L 5.5 215 Q 3.7 211.9 2 213.5 L 1.5 211 L 0.5 214 L 0 0 Z " /><path fill="rgb(220,74,174)" stroke="rgb(220,74,174)" stroke-width="1" opacity="0.996078431372549" d="M 299.5 200 L 298.5 202 L 299.5 200 Z " /><path fill="rgb(220,74,174)" stroke="rgb(220,74,174)" stroke-width="1" opacity="0.996078431372549" d="M 13.5 216 L 14.5 218 L 13.5 216 Z " /><path fill="rgb(220,74,174)" stroke="rgb(220,74,174)" stroke-width="1" opacity="0.996078431372549" d="M 19.5 217 Q 21.8 216.3 21 218.5 L 19.5 217 Z " /><path fill="rgb(251,58,98)" stroke="rgb(251,58,98)" stroke-width="1" opacity="0.996078431372549" d="M 57.5 0 L 242 0.5 L 241.5 2 L 243.5 1 L 242.5 5 Q 239.9 4.3 241 7 L 244 7.5 L 243.5 10 Q 241.3 10.8 242 8.5 L 241 8.5 Q 239.7 12.7 244.5 11 L 244.5 12 L 242 13.5 L 242.5 15 L 244 14.5 L 243 20.5 L 244 24.5 L 243 29.5 L 244 31.5 L 243 33.5 L 243 35.5 Q 242.3 37.8 244.5 37 L 243.5 40 Q 246.1 39.3 245 42 L 243 42.5 L 245 46.5 L 246 48.5 Q 242.9 50.3 244.5 52 L 243 52.5 L 246 53.5 L 246 55.5 L 245.5 57 L 243.5 56 L 245 58.5 L 246 60.5 L 245 62.5 L 245.5 64 L 244 64.5 L 246 67.5 L 245 72.5 L 245.5 74 L 244 74.5 L 246 75 L 247 77.5 L 245 78.5 L 247 79 L 245 82.5 L 246 85.5 L 247 89.5 L 247 93.5 L 248 95.5 Q 244 97.5 248 99.5 L 247 104 L 249 104.5 L 247 105 L 249 110.5 L 247 112.5 L 248 115.5 L 247 120 Q 249.7 118.9 249 121.5 L 248 123.5 L 248.5 125 L 247 124.5 L 249 131.5 L 248 134.5 L 250 137.5 L 248 138.5 L 249 141.5 L 248.5 143 L 250 143.5 L 249 145.5 L 250 147.5 L 250 151.5 L 249 154.5 L 251 154.5 L 249 156.5 L 250 159.5 L 251 161.5 L 249 164.5 L 251 165.5 L 250 168.5 L 251 173.5 L 250 175.5 L 251 179.5 L 251 185.5 L 252 192.5 L 251 194.5 L 252 197.5 L 251 201.5 L 253 205.5 L 252 208.5 L 253 211.5 L 252 213.5 L 253 216.5 L 254 218.5 Q 251.3 220.3 253 226.5 L 254 228.5 L 254 230.5 L 254 245.5 L 255 246.5 L 254 249.5 L 255 251.5 L 254 253.5 L 255 254.5 L 255 269.5 L 257 273.5 L 255 272.5 L 217 205.5 L 211.5 199 Q 207.7 196.3 199.5 198 L 197 195.5 L 187 181.5 L 186 178 L 183 176.5 L 182 173 Q 179 174.3 180 170.5 L 154.5 135 Q 151.9 135.8 153 132.5 L 151 132.5 L 152 131.5 L 148 127.5 L 148 125 Q 145.3 126.1 146 123.5 L 144 120 L 142 119.5 L 143 118.5 L 139 114.5 Q 139.7 111.9 137 113 L 137 110.5 L 130.5 100 L 129 100.5 L 125 93 L 122 91.5 L 120 86 Q 117.3 87.1 118 84.5 L 114.5 80 L 113 79.5 L 113 77.5 L 106.5 67 L 105 67.5 Q 106.1 64.2 103.5 65 Q 100.8 63.7 103 62.5 L 98 57.5 L 96.5 54 L 94 52.5 L 90 44 Q 87.3 45.1 88 42.5 L 84 38.5 Q 84.8 34.8 82.5 34 L 80 32.5 L 75 23 L 71 20.5 Q 73.5 19 70 17.5 L 67 13.5 L 67 11 Q 63.3 12.5 64 9.5 L 64.5 8 Q 62.3 8.8 63 6.5 L 59.5 1 Q 57.7 3.5 57.5 0 Z M 73 20 L 74 22 Q 75 19 73 20 Z M 247 99 L 246 102 L 247 102 L 247 99 Z " /><path fill="rgb(255,108,37)" stroke="rgb(255,108,37)" stroke-width="1" opacity="0.996078431372549" d="M 450.5 0 L 512 0 L 512 147.5 L 509.5 148 Q 505.1 146.5 506 149.5 L 504 149.5 L 502.5 152 L 501 151.5 Q 501.8 153.8 499.5 153 L 493.5 156 L 492 155.5 Q 492.8 157.8 490.5 157 L 484.5 161 L 483 160.5 Q 483.8 163.1 480.5 162 L 476.5 165 L 475.5 163 L 474.5 166 L 473 165.5 Q 473.7 168.5 470 167 L 470 169 L 467.5 169 Q 466.3 172 462 171 Q 463.1 173.7 460.5 173 L 457.5 175 L 455.5 174 L 454.5 177 L 453.5 175 L 450.5 179 L 450.5 177 L 448 178.5 Q 448.8 180.8 446.5 180 L 444.5 180 L 440.5 184 L 439 183.5 L 437.5 186 L 435.5 185 L 433.5 187 L 428 188 Q 429.1 190.7 426.5 190 L 424 190.5 L 423.5 192 L 422.5 191 L 419.5 194 L 412 196 L 411.5 198 L 410 197.5 L 408.5 200 Q 407.3 197.7 406 200.5 L 405.5 202 L 404.5 201 L 401.5 204 L 399.5 204 L 388.5 210 L 386 210 Q 387.1 212.7 384.5 212 L 383.5 211 L 379.5 215 L 376.5 216 L 377 214.5 L 383 203.5 L 379.5 198 L 312 197.5 L 344.5 151 L 346 150.5 L 345.5 149 Q 347.8 149.8 347 147.5 L 354 136 Q 356.7 137.1 356 134.5 Q 359.6 132.6 359 128 L 363 125.5 Q 361.9 122.2 364.5 123 L 365.5 120 L 368 118.5 L 376.5 105 Q 379.1 105.8 378 102.5 L 389 88.5 Q 386.8 87.3 389.5 86 L 391 86.5 Q 391.5 80.5 396 78.5 L 396 76 Q 399 77.3 398 73.5 Q 406.7 64.6 412 53 Q 414.7 54.1 414 51.5 L 417 46 Q 419.7 47.1 419 44.5 L 423.5 38 Q 426.1 38.8 425 35.5 L 426 33 Q 429 34.3 428 30.5 L 434.5 22 Q 436.8 22.8 436 20.5 Q 438.8 19.4 438 16 L 440 16 L 440 14 Q 442.7 15.1 442 12.5 L 443 9 Q 445.7 10.1 445 7.5 L 448 5.5 L 447 4.5 Q 450.1 2.8 448.5 1 L 450.5 0 Z M 465 168 L 465 170 L 467 169 L 465 168 Z " /><path fill="rgb(210,190,250)" stroke="rgb(210,190,250)" stroke-width="1" opacity="0.996078431372549" d="M 133.5 198 L 208.5 198 L 214 201.5 L 255 274 Q 257.7 275.1 257 272.5 L 295 206.5 L 301.5 199 L 303.5 198 L 378.5 198 L 381 199 L 382 205.5 L 298.5 348 Q 293.3 349.3 292 346.5 L 256.5 285 Q 254.3 284.3 255 286.5 L 218.5 348 Q 212.3 349.3 211 345.5 L 170 274 L 163.5 273 L 159.5 274 L 157.5 274 L 155.5 273 L 153.5 273 L 138.5 272 L 135.5 273 L 125.5 271 L 121.5 271 L 118.5 272 L 115.5 271 L 113.5 271 L 108.5 270 L 106.5 271 L 104.5 271 L 101.5 270 L 99.5 270 L 96.5 271 L 95.5 270 L 80.5 269 L 78.5 270 L 73.5 269 L 71.5 270 L 68.5 269 L 66.5 270 L 66 268 L 62.5 269 L 60.5 268 L 57.5 269 L 55.5 268 L 53.5 269 L 52.5 268 L 41.5 267 L 38.5 268 L 36.5 268 L 20.5 266 L 16.5 266 L 6.5 267 L 3.5 265 L 2.5 267 L 1.5 265 L 0 265.5 L 0 214.5 L 2.5 210 L 2 211.5 L 2.5 214 L 4.5 211 L 5.5 213 L 8.5 212 L 10.5 214 L 17.5 217 L 18.5 215 L 23 216 Q 21.9 218.7 24.5 218 L 27 216.5 L 26.5 218 L 29.5 220 L 30.5 218 L 33 219 Q 31.5 222.7 34.5 222 L 38 223 L 38.5 220 L 40 222.5 L 39.5 224 L 41.5 223 L 44 224.5 L 43 222.5 L 45 221.5 L 45 223.5 L 45.5 225 L 46.5 223 L 55.5 227 L 55.5 225 L 58.5 228 L 61 226.5 Q 60.1 229.9 65.5 228 L 67.5 229 L 68.5 228 L 72.5 230 L 76.5 232 L 78.5 231 L 79.5 234 L 82.5 232 L 83.5 235 L 84.5 232 L 85 235 L 87 234.5 L 86.5 233 L 88.5 234 L 90.5 233 L 90.5 234 L 89 234.5 L 96.5 236 L 99.5 238 L 103 237 Q 101.9 239.7 104.5 239 L 107 238 Q 105.9 240.7 108.5 240 Q 109.6 242.8 113 242 Q 111.9 239.3 114.5 240 Q 115.6 242.8 119 242 L 119.5 244 L 120 242 L 125 243.5 L 124.5 245 Q 133.1 244.9 138.5 248 L 140.5 247 Q 142.9 250.7 149 250 L 149.5 252 L 150 250 L 155.5 253 Q 158.8 251.3 155 249.5 L 131 207.5 L 130 200.5 L 133.5 198 Z M 9 213 L 7 215 L 9 215 L 9 213 Z M 20 217 L 21 219 Q 22 216 20 217 Z M 69 229 Q 67 232 70 231 L 69 229 Z M 115 241 Q 113 244 116 243 L 115 241 Z " /><path fill="rgb(210,190,250)" stroke="rgb(210,190,250)" stroke-width="1" opacity="0.996078431372549" d="M 34.5 220 L 37 221.5 L 35.5 221 L 34.5 220 Z " /><path fill="rgb(255,67,65)" stroke="rgb(255,67,65)" stroke-width="1" opacity="0.996078431372549" d="M 242.5 0 L 450 0.5 L 448 1.5 L 449 2.5 Q 445.9 4.3 447.5 6 L 445 7.5 Q 445.7 10.1 443 9 L 443 11.5 L 442 14 L 438 16 L 438 18.5 L 436 22 L 433 23.5 L 428 30.5 L 428 33 Q 425.3 31.9 426 34.5 L 425 38 L 422 39.5 L 419 46 Q 416.3 44.9 417 47.5 L 414 53 Q 411.3 51.9 412 54.5 Q 408.9 56.3 410.5 58 L 409 57.5 L 410 59.5 L 408 59.5 L 402 68.5 L 402.5 70 L 401 69.5 L 398 73.5 L 398 76 Q 395 74.8 396 78.5 Q 391.5 81 390.5 87 Q 389.3 84.7 388 87.5 L 389 88.5 L 385 92.5 L 378 102.5 L 378 105 L 376 105.5 L 376.5 107 L 375 106.5 L 366.5 120 L 365 120.5 Q 367.2 121.8 364.5 123 Q 361.9 122.2 363 125.5 L 359 128 L 356 136 Q 353.3 134.9 354 137.5 L 347 149 L 345 149.5 L 345.5 151 L 342 153.5 L 338 161.5 L 311.5 198 Q 300 196 297 202.5 L 256.5 273 L 255 269.5 L 255 254.5 L 254 252.5 L 255 250.5 L 254 247.5 L 254 245.5 L 254 230.5 L 253 229.5 L 254 227.5 L 252 218.5 L 253 216.5 L 253 212.5 L 252 210.5 L 252 208.5 L 253 205.5 L 251 201.5 L 252 197.5 L 251 194.5 L 252 190.5 L 251 185.5 L 251 179.5 L 250 174.5 L 251 170.5 L 250 168.5 L 250.5 165 L 249 164.5 L 251 161.5 L 249 158.5 L 249 154.5 L 250 151.5 L 250 147.5 L 249 144.5 L 249.5 143 L 248 142.5 L 249 139.5 L 248.5 138 L 250 137.5 L 248 134.5 L 249 131.5 L 248.5 129 L 247 129.5 L 248 126.5 L 247 124.5 L 249 120 Q 246.3 121.1 247 118.5 L 248 115.5 L 248 109.5 L 247 105 L 249 104.5 L 247 104 L 246.5 102 L 245 102.5 L 247 98.5 L 247 94.5 L 246 92.5 L 247 89.5 L 246.5 87 L 245.5 89 L 245 87.5 L 246 85.5 L 244.5 81 Q 245.8 83.2 247 80.5 Q 247.8 78.3 245.5 79 L 244.5 77 L 246.5 78 L 246 76.5 Q 246.8 74.3 244.5 75 L 244.5 74 L 246 73.5 L 245 68.5 L 245 66.5 L 243 63.5 L 244.5 64 L 246 63.5 L 245 61.5 L 245 59.5 L 243 56.5 L 244.5 56 L 246 56.5 L 244.5 54 L 243 54.5 L 243.5 52 L 245 51.5 L 242 49.5 L 245 47.5 L 244 45.5 L 245 44.5 L 243.5 42 Q 246.1 42.7 245 40 L 242 38.5 L 243 35.5 L 243 33.5 L 242 31.5 L 244 31.5 L 243 25.5 L 244 21.5 L 242.5 22 L 241 21.5 L 243 21 L 244 14.5 L 242 14.5 L 243.5 12 L 245 11.5 L 241 11 L 241.5 8 L 242 10 L 244 9.5 L 243.5 7 Q 239.8 8 241 5 L 243 4.5 L 242.5 2 L 241 1.5 L 242.5 0 Z M 243 37 L 243 39 L 245 38 L 243 37 Z M 248 99 L 247 102 L 248 102 L 248 99 Z " /><path fill="rgb(249,191,12)" stroke="rgb(249,191,12)" stroke-width="1" opacity="0.996078431372549" d="M 509.5 146 L 512 148.5 L 512 512 L 338.5 512 L 338 510.5 L 336 506.5 L 332 493.5 L 329 490.5 L 330 487.5 L 329 485 L 327 484.5 L 328 481.5 L 325 478.5 L 326 477.5 L 323 471.5 L 323 469.5 L 321 465.5 L 321 463.5 L 315 447.5 L 315 444.5 L 312 439.5 L 312 436.5 L 310 434.5 L 310 430.5 L 307 426.5 L 308 424 L 306 423.5 L 306 421.5 Q 305.5 415 302 411.5 L 300 401.5 L 298 399.5 Q 297.7 392.3 294 388.5 L 294 386.5 L 263 298.5 L 265 299.5 L 293.5 348 Q 299.8 349.3 301 345.5 L 369 226 Q 371.7 227.1 371 224.5 L 373 219 L 375 219 Q 373.5 215.2 376.5 216 L 376.5 214 L 379.5 215 L 383.5 211 L 384.5 212 Q 387.1 212.7 386 210 L 388.5 210 L 400.5 203 L 401.5 204 Q 403.8 199.7 406 201.5 L 407.5 199 Q 408.8 201.3 410 198.5 L 410.5 197 L 412 197.5 Q 411.2 194.9 414.5 196 L 422.5 191 L 424 191.5 L 424.5 190 L 426.5 190 L 429.5 188 L 434 186.5 L 433.5 185 L 436.5 186 L 438 185.5 L 437.5 184 L 439 184.5 L 440.5 182 L 441.5 183 L 445.5 179 L 446.5 180 Q 448.8 180.8 448 178.5 L 450.5 177 Q 451.7 179.3 453 176.5 L 453.5 175 L 454.5 177 L 455.5 174 L 457.5 175 L 462 173 Q 460.7 169.7 465.5 171 L 465 169.5 Q 464.3 167.3 466.5 168 L 470 169 L 470 167 Q 473.7 168.5 473 165.5 L 475 165.5 L 475.5 163 L 476.5 165 L 479 163.5 L 478.5 162 L 480.5 162 Q 483.8 163.1 483 160.5 L 485.5 160 L 492 157 L 492.5 155 L 494.5 155 L 501 153 L 502.5 150 L 504 150.5 L 504.5 149 L 506 149.5 Q 505.1 146.5 509.5 148 L 509.5 146 Z " /><path fill="rgb(31,154,201)" stroke="rgb(31,154,201)" stroke-width="1" opacity="0.996078431372549" d="M 1.5 265 L 2.5 267 L 3.5 265 L 8.5 267 Q 10.3 264.3 16.5 266 L 20.5 266 L 36.5 268 L 38.5 268 L 45.5 267 L 54.5 269 L 56.5 269 L 58.5 268 L 60.5 268 L 63.5 269 L 66 268 L 66.5 270 L 68.5 269 L 72.5 269 L 74.5 270 L 78.5 270 L 83.5 269 L 84.5 270 L 95.5 270 L 96.5 271 L 99.5 270 L 101.5 270 L 104.5 271 L 106.5 271 L 108.5 270 L 114.5 272 L 117.5 271 L 119.5 271 L 122.5 272 L 126.5 272 L 137.5 273 L 142.5 272 L 143.5 273 L 153.5 273 L 154.5 274 L 156.5 274 L 158.5 273 L 162.5 274 L 164.5 274 Q 170.6 272.8 170 275.5 L 180 290.5 L 212 348 Q 215 346.8 214 350.5 L 197 377.5 L 189 394 Q 186.3 392.9 187 395.5 L 180 406.5 L 178 412.5 L 173 418.5 L 171 424.5 L 162 437.5 L 162.5 439 Q 159.9 438.2 161 441.5 L 158 444.5 L 155 452 L 153 452.5 Q 155.5 454 152 455.5 Q 148.1 457.6 149 463 L 146 464.5 Q 148.5 466 145 467.5 L 136 481.5 L 136 483.5 L 133.5 487 L 132 487.5 L 133 488.5 L 130 491.5 L 129.5 496 L 128 495.5 L 126.5 501 L 125 500.5 L 123 507 Q 120.3 505.9 121 508.5 L 118.5 512 L 0 512 L 0 266.5 L 1.5 265 Z " /><path fill="rgb(107,209,67)" stroke="rgb(107,209,67)" stroke-width="1" opacity="0.996078431372549" d="M 255 285 L 258 286.5 L 264 297.5 L 264 299.5 L 272 325.5 L 283 353.5 L 284 360.5 L 287 364.5 L 290 376.5 L 295 387.5 L 295 389.5 L 298 399.5 L 300 401.5 L 302 411.5 L 307 422.5 L 306.5 424 Q 308.8 423.3 308 425.5 L 307 427.5 L 310 430.5 L 310 434.5 L 312 436.5 L 312 439.5 L 315 444.5 L 316 450.5 L 322 464.5 Q 319.5 466 323 467.5 L 324 470.5 L 324 472.5 L 327 478.5 Q 324.5 480 328 481.5 L 327 484.5 L 329 485 L 331 490.5 Q 328.5 492 332 493.5 L 332 496.5 L 337 507.5 Q 334.5 509 338 510.5 L 337.5 512 L 119.5 512 L 120 510.5 L 121 507 Q 124 508.3 123 504.5 L 125.5 500 L 127 500.5 L 128.5 495 L 130 495.5 Q 129 489.5 133 488.5 L 132.5 487 L 136 484.5 L 137 482.5 Q 134.5 481 138 479.5 L 147 465.5 Q 144.8 464.3 147.5 463 Q 150.5 463.9 149 459.5 L 154 453.5 L 153.5 452 Q 155.8 452.8 155 450.5 L 161 441.5 L 161 439 L 163 438.5 L 162 437.5 L 165 434.5 L 187 394 Q 189.7 395.1 189 392.5 L 214 350.5 L 214 348 Q 219.5 349.3 221 345.5 L 255 285 Z " /></svg>